<?xml version="1.0" encoding="UTF-8" standalone="no"?>
<!-- Created with Inkscape (http://www.inkscape.org/) -->

<svg
   width="264.58334mm"
   height="264.58334mm"
   viewBox="0 0 264.58334 264.58334"
   version="1.1"
   id="svg1"
   xml:space="preserve"
   xmlns="http://www.w3.org/2000/svg"
   xmlns:svg="http://www.w3.org/2000/svg"><defs
     id="defs1" /><g
     id="layer1"
     transform="translate(29.368756,-16.13958)"><path
       style="fill:#ff5d97;fill-opacity:1"
       d="m 73.576808,186.50863 c -1.807489,-0.35473 -2.972171,-1.27542 -7.964999,-6.29639 -4.271319,-4.2954 -11.907263,-13.13262 -17.173091,-19.87474 -5.641581,-7.22322 -11.198099,-16.79639 -12.949616,-22.31054 -2.201573,-6.93103 -2.118059,-13.59765 0.233634,-18.65016 0.977982,-2.10116 3.482359,-4.74852 5.499513,-5.81351 4.728495,-2.49648 11.296955,-2.11655 17.558991,1.01564 4.865126,2.43348 11.487528,8.03143 14.988987,12.67028 4.578902,6.06627 11.35039,19.57259 16.477946,32.8667 4.572607,11.8553 8.062119,21.85354 8.351275,23.9283 0.198397,1.42353 -0.17932,2.06089 -1.446309,2.44048 -1.23337,0.36953 -21.709491,0.39032 -23.576331,0.0239 z m 34.974612,5e-4 c -1.09036,-0.32492 -1.49626,-1.091 -1.30601,-2.46492 0.39115,-2.82471 7.59593,-22.61458 11.79698,-32.4036 3.68179,-8.57906 8.75104,-18.29191 12.01469,-23.02056 2.71595,-3.93508 7.65706,-8.76045 11.83271,-11.55551 7.85707,-5.25932 15.16079,-6.51941 21.36495,-3.68605 3.10495,1.41799 6.01754,5.22568 7.08004,9.25588 0.60285,2.28669 0.78725,6.88246 0.38588,9.61732 -1.09146,7.43697 -5.41773,16.2003 -13.08165,26.49831 -7.51747,10.10123 -21.81073,25.75755 -24.89213,27.26595 l -1.32292,0.64759 -11.50938,0.05 c -6.75805,0.0294 -11.86183,-0.055 -12.36316,-0.20442 z"
       id="path1000001" /></g></svg>
