<svg version="1.1" id="Layer_1" xmlns="http://www.w3.org/2000/svg" xmlns:xlink="http://www.w3.org/1999/xlink" x="0px" y="0px"
	 width="100%" viewBox="0 0 1000 1000" enable-background="new 0 0 1000 1000" xml:space="preserve">
<path fill="#FFFFFF" opacity="1.000000" stroke="none" 
	d="
M586.000000,1001.000000 
	C390.666656,1001.000000 195.833328,1001.000000 1.000000,1001.000000 
	C1.000000,667.666687 1.000000,334.333344 1.000000,1.000000 
	C334.333344,1.000000 667.666687,1.000000 1001.000000,1.000000 
	C1001.000000,334.333344 1001.000000,667.666687 1001.000000,1001.000000 
	C862.833313,1001.000000 724.666687,1001.000000 586.000000,1001.000000 
M468.007751,585.370300 
	C452.074158,541.731628 435.016052,498.610046 413.204041,457.450836 
	C396.887878,426.662415 376.763550,399.499023 346.872803,380.569183 
	C330.294952,370.070404 312.797974,362.464325 292.660034,363.086548 
	C268.092896,363.845612 249.527466,378.116150 243.264175,401.343597 
	C235.779938,429.098816 241.384491,455.425629 253.742157,480.164429 
	C262.846985,498.391357 273.727722,515.897827 285.377563,532.639465 
	C296.837830,549.108643 309.774139,564.635742 322.954865,579.800903 
	C338.975555,598.233643 355.807892,615.969543 372.537750,633.773315 
	C379.542908,641.228149 387.934570,646.125549 398.804169,646.028137 
	C422.954529,645.811584 447.108246,646.005859 471.260315,645.936646 
	C484.117493,645.899841 487.072906,642.098267 483.187897,630.059021 
	C478.436707,615.335510 473.282318,600.742126 468.007751,585.370300 
M651.898010,611.402588 
	C666.640747,594.045288 681.511536,576.794800 696.096436,559.305786 
	C718.442932,532.509766 738.483398,504.212830 751.935791,471.721039 
	C760.714172,450.518250 764.621399,428.776947 759.808289,405.945312 
	C755.772034,386.799011 745.476257,372.818359 726.629761,366.209808 
	C710.290283,360.480347 694.099548,362.511078 678.340942,368.654419 
	C650.882812,379.358643 629.075623,397.737152 611.524475,420.869598 
	C593.226135,444.986755 580.190613,472.293243 568.189392,499.932861 
	C557.391907,524.800232 547.371338,550.027344 537.769043,575.383911 
	C530.467651,594.664368 524.195190,614.343262 517.809937,633.957214 
	C515.571289,640.833801 517.793030,643.899414 524.798218,645.442078 
	C526.409729,645.796936 528.100708,645.927063 529.755371,645.929199 
	C554.409851,645.961121 579.064636,646.029419 603.718506,645.909119 
	C610.825439,645.874512 617.710083,644.369141 623.085327,639.286987 
	C632.625000,630.267578 641.976807,621.049438 651.898010,611.402588 
z"/>
<path fill="#FF5D97" opacity="1.000000" stroke="none" 
	d="
M468.155029,585.731384 
	C473.282318,600.742126 478.436707,615.335510 483.187897,630.059021 
	C487.072906,642.098267 484.117493,645.899841 471.260315,645.936646 
	C447.108246,646.005859 422.954529,645.811584 398.804169,646.028137 
	C387.934570,646.125549 379.542908,641.228149 372.537750,633.773315 
	C355.807892,615.969543 338.975555,598.233643 322.954865,579.800903 
	C309.774139,564.635742 296.837830,549.108643 285.377563,532.639465 
	C273.727722,515.897827 262.846985,498.391357 253.742157,480.164429 
	C241.384491,455.425629 235.779938,429.098816 243.264175,401.343597 
	C249.527466,378.116150 268.092896,363.845612 292.660034,363.086548 
	C312.797974,362.464325 330.294952,370.070404 346.872803,380.569183 
	C376.763550,399.499023 396.887878,426.662415 413.204041,457.450836 
	C435.016052,498.610046 452.074158,541.731628 468.155029,585.731384 
z"/>
<path fill="#FF5D97" opacity="1.000000" stroke="none" 
	d="
M651.652588,611.658569 
	C641.976807,621.049438 632.625000,630.267578 623.085327,639.286987 
	C617.710083,644.369141 610.825439,645.874512 603.718506,645.909119 
	C579.064636,646.029419 554.409851,645.961121 529.755371,645.929199 
	C528.100708,645.927063 526.409729,645.796936 524.798218,645.442078 
	C517.793030,643.899414 515.571289,640.833801 517.809937,633.957214 
	C524.195190,614.343262 530.467651,594.664368 537.769043,575.383911 
	C547.371338,550.027344 557.391907,524.800232 568.189392,499.932861 
	C580.190613,472.293243 593.226135,444.986755 611.524475,420.869598 
	C629.075623,397.737152 650.882812,379.358643 678.340942,368.654419 
	C694.099548,362.511078 710.290283,360.480347 726.629761,366.209808 
	C745.476257,372.818359 755.772034,386.799011 759.808289,405.945312 
	C764.621399,428.776947 760.714172,450.518250 751.935791,471.721039 
	C738.483398,504.212830 718.442932,532.509766 696.096436,559.305786 
	C681.511536,576.794800 666.640747,594.045288 651.652588,611.658569 
z"/>
</svg>